<svg xmlns="http://www.w3.org/2000/svg" width="49" height="49" viewBox="0 0 49 49">
  <g transform="translate(-1032 -210)">
    <path id="Polygon_4" data-name="Polygon 4" d="M22.711,3.578a2,2,0,0,1,3.578,0L47.553,46.106A2,2,0,0,1,45.764,49H3.236a2,2,0,0,1-1.789-2.894Z" transform="translate(1081 210) rotate(90)" fill="#f4db3e"/>
    <path id="Polygon_4_-_Outline" data-name="Polygon 4 - Outline" d="M24.5,3.472a.982.982,0,0,0-.894.553L2.342,46.553A1,1,0,0,0,3.236,48H45.764a1,1,0,0,0,.894-1.447L25.394,4.025a.982.982,0,0,0-.894-.553m0-1a1.977,1.977,0,0,1,1.789,1.106L47.553,46.106A2,2,0,0,1,45.764,49H3.236a2,2,0,0,1-1.789-2.894L22.711,3.578A1.977,1.977,0,0,1,24.5,2.472Z" transform="translate(1081 210) rotate(90)" fill="#707070"/>
  </g>
</svg>
