<svg xmlns="http://www.w3.org/2000/svg" xmlns:xlink="http://www.w3.org/1999/xlink" width="67" height="67" viewBox="0 0 67 67">
  <defs>
    <filter id="Polygon_5" x="0" y="0" width="67" height="67" filterUnits="userSpaceOnUse">
      <feOffset dy="6" input="SourceAlpha"/>
      <feGaussianBlur stdDeviation="3" result="blur"/>
      <feFlood flood-opacity="0.161"/>
      <feComposite operator="in" in2="blur"/>
      <feComposite in="SourceGraphic"/>
    </filter>
  </defs>
  <g transform="matrix(1, 0, 0, 1, 0, 0)" filter="url(#Polygon_5)">
    <g id="Polygon_5-2" data-name="Polygon 5" transform="translate(9 52) rotate(-90)" fill="#f4db3e">
      <path d="M 45.76393127441406 48.50000381469727 L 3.236071825027466 48.50000381469727 C 2.712401866912842 48.50000381469727 2.23540186882019 48.23405456542969 1.960091948509216 47.78859710693359 C 1.684781908988953 47.34314727783203 1.660231947898865 46.79756546020508 1.894421935081482 46.32918548583984 L 23.15835189819336 3.801315546035767 C 23.41796112060547 3.282105445861816 23.91950225830078 2.972135543823242 24.50000190734863 2.972135543823242 C 25.08049201965332 2.972135543823242 25.58203125 3.282105445861816 25.84164237976074 3.801315546035767 L 47.10557174682617 46.32918548583984 C 47.33976364135742 46.79756546020508 47.31521224975586 47.34313583374023 47.03991317749023 47.78859710693359 C 46.76460266113281 48.23405456542969 46.28760147094727 48.50000381469727 45.76393127441406 48.50000381469727 Z" stroke="none"/>
      <path d="M 24.49999237060547 3.472126007080078 C 24.11300277709961 3.472126007080078 23.77864265441895 3.678775787353516 23.60557174682617 4.024913787841797 L 2.341640472412109 46.55278396606445 C 2.116600036621094 47.00286483764648 2.297283172607422 47.38312530517578 2.385410308837891 47.52572631835938 C 2.473541259765625 47.66832733154297 2.732852935791016 47.99999618530273 3.236072540283203 47.99999618530273 L 45.76393127441406 47.99999618530273 C 46.26714324951172 47.99999618530273 46.52645111083984 47.66832733154297 46.61458206176758 47.52572631835938 C 46.70271301269531 47.38312530517578 46.88339996337891 47.00286483764648 46.65835189819336 46.55278396606445 L 25.39443206787109 4.024925231933594 C 25.22135162353516 3.678775787353516 24.88698196411133 3.472126007080078 24.49999237060547 3.472126007080078 M 24.49999618530273 2.472129821777344 C 25.21016120910645 2.472129821777344 25.92032623291016 2.840656280517578 26.28885269165039 3.577705383300781 L 47.55278015136719 46.10557556152344 C 48.21769332885742 47.43537521362305 47.25069046020508 48.99999618530273 45.76393127441406 48.99999618530273 L 3.236072540283203 48.99999618530273 C 1.749301910400391 48.99999618530273 0.7823104858398438 47.43537521362305 1.447212219238281 46.10557556152344 L 22.71114158630371 3.577705383300781 C 23.07966613769531 2.840656280517578 23.78983116149902 2.472129821777344 24.49999618530273 2.472129821777344 Z" stroke="none" fill="#707070"/>
    </g>
  </g>
</svg>
